<svg xmlns="http://www.w3.org/2000/svg" width="96" height="96" viewBox="0 0 96 96" version="1.1"><path d="M 2.174 2.314 C 0.018 4.610, 0 4.949, 0 44.140 L 0 83.651 2.250 85.699 C 4.901 88.111, 28.126 96, 32.577 96 C 36.811 96, 40 92.427, 40 87.686 L 40 84 48.050 84 C 62.336 84, 64.223 81.596, 63.785 63.959 L 63.500 52.500 61 52.500 C 58.510 52.500, 58.498 52.544, 58 63.834 C 57.397 77.497, 57 78, 46.809 78 L 40 78 40 45.174 C 40 12.406, 39.996 12.345, 37.750 10.302 C 36.513 9.176, 34.150 7.783, 32.500 7.206 C 30.082 6.361, 31.839 6.143, 41.559 6.079 C 57.716 5.973, 57.360 5.669, 58 20.166 C 58.498 31.456, 58.510 31.500, 61 31.500 L 63.500 31.500 63.785 20.041 C 63.962 12.888, 63.628 7.515, 62.894 5.744 C 60.667 0.367, 58.579 -0, 30.224 0 C 4.470 0, 4.338 0.011, 2.174 2.314 M 7.095 7.305 C 5.842 8.558, 5.527 78.748, 6.765 80.596 C 7.169 81.199, 12.970 83.514, 19.655 85.741 C 28.459 88.673, 32.113 89.487, 32.905 88.695 C 34.158 87.442, 34.473 17.252, 33.235 15.404 C 32.831 14.801, 27.030 12.486, 20.345 10.259 C 11.541 7.327, 7.887 6.513, 7.095 7.305 M 75.667 24.667 C 74.049 26.284, 75.348 28.918, 80.041 33.538 L 85.083 38.500 68.791 39 L 52.500 39.500 52.500 42 L 52.500 44.500 68.940 44.776 L 85.381 45.051 80.094 50.405 C 74.652 55.915, 73.730 59.132, 77.392 59.837 C 79.568 60.256, 96 44.506, 96 42 C 96 39.981, 79.926 24, 77.896 24 C 77.036 24, 76.033 24.300, 75.667 24.667" stroke="none" fill="#fffcfc" fill-rule="evenodd"/><path d="" stroke="none" fill="#fcfcfc" fill-rule="evenodd"/></svg>